<svg width="22" height="22" viewBox="0 0 22 22" fill="none" xmlns="http://www.w3.org/2000/svg">
<path d="M12.6794 5.02501L14.0634 6.53751H17.1262V15.6125H5.02617V6.53751H8.08898L9.47292 5.02501H12.6794ZM13.3449 3.51251H8.80742L7.42348 5.02501H5.02617C4.1943 5.02501 3.51367 5.70564 3.51367 6.53751V15.6125C3.51367 16.4444 4.1943 17.125 5.02617 17.125H17.1262C17.958 17.125 18.6387 16.4444 18.6387 15.6125V6.53751C18.6387 5.70564 17.958 5.02501 17.1262 5.02501H14.7289L13.3449 3.51251ZM11.0762 8.80626C12.324 8.80626 13.3449 9.8272 13.3449 11.075C13.3449 12.3228 12.324 13.3438 11.0762 13.3438C9.82836 13.3438 8.80742 12.3228 8.80742 11.075C8.80742 9.8272 9.82836 8.80626 11.0762 8.80626ZM11.0762 7.29376C8.98892 7.29376 7.29492 8.98776 7.29492 11.075C7.29492 13.1623 8.98892 14.8563 11.0762 14.8563C13.1634 14.8563 14.8574 13.1623 14.8574 11.075C14.8574 8.98776 13.1634 7.29376 11.0762 7.29376Z" fill="#404040"/>
</svg>
