<svg width="19" height="19" viewBox="0 0 19 19" fill="none" xmlns="http://www.w3.org/2000/svg">
<path d="M18.1621 0.851252C18.0349 0.723785 17.8838 0.622657 17.7174 0.553658C17.5511 0.484658 17.3728 0.449142 17.1927 0.449142C17.0126 0.449142 16.8343 0.484658 16.668 0.553658C16.5016 0.622657 16.3505 0.723785 16.2233 0.851252L9.49957 7.56125L2.77583 0.837502C2.64852 0.710202 2.4974 0.609222 2.33107 0.540328C2.16475 0.471433 1.98648 0.435974 1.80645 0.435974C1.62642 0.435974 1.44815 0.471433 1.28183 0.540328C1.1155 0.609222 0.964375 0.710202 0.837075 0.837502C0.709775 0.964802 0.608795 1.11593 0.5399 1.28226C0.471006 1.44858 0.435547 1.62685 0.435547 1.80688C0.435547 1.98691 0.471006 2.16517 0.5399 2.3315C0.608795 2.49782 0.709775 2.64895 0.837075 2.77625L7.56082 9.5L0.837075 16.2237C0.709775 16.351 0.608795 16.5022 0.5399 16.6685C0.471006 16.8348 0.435547 17.0131 0.435547 17.1931C0.435547 17.3732 0.471006 17.5514 0.5399 17.7177C0.608795 17.8841 0.709775 18.0352 0.837075 18.1625C0.964375 18.2898 1.1155 18.3908 1.28183 18.4597C1.44815 18.5286 1.62642 18.564 1.80645 18.564C1.98648 18.564 2.16475 18.5286 2.33107 18.4597C2.4974 18.3908 2.64852 18.2898 2.77583 18.1625L9.49957 11.4388L16.2233 18.1625C16.3506 18.2898 16.5018 18.3908 16.6681 18.4597C16.8344 18.5286 17.0127 18.564 17.1927 18.564C17.3727 18.564 17.551 18.5286 17.7173 18.4597C17.8836 18.3908 18.0348 18.2898 18.1621 18.1625C18.2894 18.0352 18.3904 17.8841 18.4592 17.7177C18.5281 17.5514 18.5636 17.3732 18.5636 17.1931C18.5636 17.0131 18.5281 16.8348 18.4592 16.6685C18.3904 16.5022 18.2894 16.351 18.1621 16.2237L11.4383 9.5L18.1621 2.77625C18.6846 2.25375 18.6846 1.37375 18.1621 0.851252Z" fill="#262626"/>
</svg>
